<mxfile host="app.diagrams.net" modified="2022-06-29T21:21:04.439Z" agent="5.0 (Windows NT 10.0; Win64; x64) AppleWebKit/537.36 (KHTML, like Gecko) Chrome/103.0.5060.53 Safari/537.36 Edg/103.0.1264.37" etag="QoUEsYYtkT5_a6791Bfr" compressed="false" version="19.0.3" type="device">
  <diagram id="ajNaJ-AR7T0vnp4WNgHj" name="Page-1">
    <mxGraphModel dx="1038" dy="570" grid="1" gridSize="10" guides="1" tooltips="1" connect="1" arrows="1" fold="1" page="1" pageScale="1" pageWidth="827" pageHeight="1169" math="0" shadow="0">
      <root>
        <mxCell id="0" />
        <mxCell id="1" parent="0" />
        <mxCell id="7j6g_gKSTmIqSR35jSwf-11" value="a" style="edgeStyle=none;curved=1;orthogonalLoop=1;jettySize=auto;strokeWidth=1;fontFamily=Times New Roman;fontSize=16;labelBackgroundColor=none;" parent="1" source="7j6g_gKSTmIqSR35jSwf-9" target="BSi0WiHmPPLqw-_b80Gw-1" edge="1">
          <mxGeometry x="-0.2844" y="-33" relative="1" as="geometry">
            <Array as="points">
              <mxPoint x="300" y="260" />
            </Array>
            <mxPoint as="offset" />
          </mxGeometry>
        </mxCell>
        <mxCell id="7j6g_gKSTmIqSR35jSwf-12" value="a, b" style="edgeStyle=none;curved=1;orthogonalLoop=1;jettySize=auto;strokeWidth=1;fontFamily=Times New Roman;fontSize=16;labelBackgroundColor=none;" parent="1" source="BSi0WiHmPPLqw-_b80Gw-1" target="7j6g_gKSTmIqSR35jSwf-9" edge="1">
          <mxGeometry relative="1" as="geometry">
            <Array as="points">
              <mxPoint x="300" y="140" />
            </Array>
          </mxGeometry>
        </mxCell>
        <mxCell id="7j6g_gKSTmIqSR35jSwf-13" value="a" style="edgeStyle=none;curved=1;orthogonalLoop=1;jettySize=auto;strokeWidth=1;fontFamily=Times New Roman;fontSize=16;labelBackgroundColor=none;" parent="1" source="BSi0WiHmPPLqw-_b80Gw-1" target="BSi0WiHmPPLqw-_b80Gw-1" edge="1">
          <mxGeometry x="0.1313" y="10" relative="1" as="geometry">
            <mxPoint x="210" y="70" as="targetPoint" />
            <Array as="points">
              <mxPoint x="240" y="130" />
            </Array>
            <mxPoint as="offset" />
          </mxGeometry>
        </mxCell>
        <mxCell id="BSi0WiHmPPLqw-_b80Gw-1" value="0" style="ellipse;shape=doubleEllipse;dashed=0;whitespace=wrap;aspect=fixed;fontFamily=Times New Roman;fontSize=16;labelBackgroundColor=none;" parent="1" vertex="1">
          <mxGeometry x="180" y="170" width="60" height="60" as="geometry" />
        </mxCell>
        <mxCell id="7j6g_gKSTmIqSR35jSwf-7" value="" style="group;fontFamily=Times New Roman;fontSize=16;labelBackgroundColor=none;" parent="1" vertex="1" connectable="0">
          <mxGeometry x="110" y="200" width="44" as="geometry" />
        </mxCell>
        <mxCell id="7j6g_gKSTmIqSR35jSwf-1" value="" style="endArrow=classic;rounded=0;shape=link;endSize=6;width=8.064516129032256;fontFamily=Times New Roman;fontSize=16;labelBackgroundColor=none;" parent="7j6g_gKSTmIqSR35jSwf-7" edge="1">
          <mxGeometry width="50" height="50" relative="1" as="geometry">
            <mxPoint as="sourcePoint" />
            <mxPoint x="40" as="targetPoint" />
          </mxGeometry>
        </mxCell>
        <mxCell id="7j6g_gKSTmIqSR35jSwf-6" value="" style="endArrow=none;rounded=0;strokeWidth=1;fontFamily=Times New Roman;fontSize=16;labelBackgroundColor=none;" parent="7j6g_gKSTmIqSR35jSwf-7" edge="1">
          <mxGeometry width="50" height="50" relative="1" as="geometry">
            <mxPoint x="34" y="10" as="sourcePoint" />
            <mxPoint x="34" y="-10" as="targetPoint" />
            <Array as="points">
              <mxPoint x="44" />
            </Array>
          </mxGeometry>
        </mxCell>
        <mxCell id="7j6g_gKSTmIqSR35jSwf-9" value="1" style="shape=ellipse;dashed=0;whitespace=wrap;aspect=fixed;perimeter=ellipsePerimeter;fontFamily=Times New Roman;fontSize=16;labelBackgroundColor=none;" parent="1" vertex="1">
          <mxGeometry x="360" y="170" width="60" height="60" as="geometry" />
        </mxCell>
      </root>
    </mxGraphModel>
  </diagram>
</mxfile>
